<?xml version="1.0" encoding="utf-8"?>
<!DOCTYPE svg PUBLIC "-//W3C//DTD SVG 1.0//EN" "http://www.w3.org/TR/2001/REC-SVG-20010904/DTD/svg10.dtd">
<svg version="1.0" xmlns="http://www.w3.org/2000/svg" width="2048px" height="2048px" viewBox="0 0 2048 2048" preserveAspectRatio="xMidYMid meet">
 <g fill="#497db6">
  <path d="M484.5 1914.4 c-41.4 -3.1 -68.4 -8.3 -100.7 -19.3 -100 -34.2 -180.3 -108.8 -227.3 -211.1 -19.9 -43.3 -32.8 -88.6 -39 -136.5 -1.9 -15.2 -3.2 -39.5 -3.9 -74.6 l-0.6 -27.7 4.7 1 c2.7 0.6 5.2 1.4 5.7 1.9 0.6 0.5 2.1 0.9 3.5 0.9 1.5 0 3.4 0.7 4.3 1.4 1 0.7 6.2 2.6 11.5 4.1 5.4 1.5 12.7 3.6 16.2 4.7 3.5 1.1 8.7 2.4 11.5 2.8 2.8 0.5 7.6 1.6 10.6 2.5 3 0.9 8.4 1.8 12 2.2 3.6 0.3 7.2 0.9 8.1 1.4 2.6 1.3 29.2 3.8 48.1 4.5 23.4 0.9 56.3 -1.9 61.5 -5.2 1.4 -0.9 2.4 -1 2.8 -0.4 0.9 1.5 7.7 0.1 9.1 -1.8 0.8 -1.1 1.3 -1.2 1.8 -0.3 0.8 1.2 5.4 0.5 7 -1 0.6 -0.5 2.6 -0.9 4.5 -0.9 8.2 0 50.3 -12.4 53.7 -15.8 1 -0.9 2.9 -1.5 4.5 -1.4 1.9 0.3 3.1 -0.3 3.8 -1.7 0.7 -1.3 1.7 -1.8 2.7 -1.4 1 0.4 2 0 2.6 -1 0.4 -0.9 1.4 -1.4 2.2 -1.1 1.4 0.5 13.8 -3.7 20 -6.8 2.1 -1.1 4.9 -3.1 6.2 -4.5 1.4 -1.5 3.6 -2.6 5.8 -2.8 5.6 -0.5 29.4 -14 56.6 -32 58.4 -38.8 121.1 -105.3 155.4 -164.9 20.2 -35.1 37.1 -78 41.1 -104.6 2 -12.6 1.9 -37.3 0 -48.6 -6 -34.8 -21.2 -69.6 -45.4 -104.4 -11 -15.8 -24.7 -32.4 -54.3 -65.7 -38 -42.8 -49.6 -57.1 -66.6 -82.5 -41.9 -62.6 -68.7 -145.2 -75.2 -232.3 -1.6 -21 -1.4 -69.1 0.4 -89 6.9 -76.8 35.4 -158.4 79.9 -229 23.4 -37.1 49.3 -68.1 85.2 -101.8 34 -32 73.2 -60.7 115.5 -84.8 9 -5.1 17.3 -10.2 18.2 -11.1 1 -1 2.5 -1.8 3.3 -1.8 0.8 0 1.5 -0.4 1.5 -1 0 -0.5 0.8 -1 1.8 -1 1 0 8.5 -3.1 16.8 -6.9 19 -8.7 47.7 -20.1 70.9 -28.1 9.9 -3.4 18.6 -6.7 19.4 -7.3 0.8 -0.7 2.3 -1.1 3.3 -0.9 1 0.2 10.1 -1.7 20.1 -4.2 44.9 -11.1 96.6 -17.6 140.2 -17.6 l11.5 0 0 616 c0 546.9 -0.2 616 -1.5 616 -0.8 0 -1.5 -0.7 -1.5 -1.5 0 -0.8 -0.4 -1.5 -1 -1.5 -1.1 0 -1.7 3.5 -2.5 14.5 -3.3 45.7 -22.9 147.7 -40 208.6 -36.7 130.5 -86.3 227.2 -154.4 300.6 -42.9 46.4 -87.6 80.6 -140.7 108 -48 24.7 -94.5 39.3 -142.9 44.8 -13.2 1.5 -57.1 2.7 -68 1.9z"/>
  <path d="M1870 1467 c0 -1.6 0.7 -2 3.5 -2 2.8 0 3.5 0.4 3.5 2 0 1.6 -0.7 2 -3.5 2 -2.8 0 -3.5 -0.4 -3.5 -2z"/>
  <path d="M1917 1455.7 c0 -1.1 4.9 -4.7 6.4 -4.7 0.3 0 0.6 1.4 0.6 3 0 2.8 -0.3 3 -3.5 3 -2.2 0 -3.5 -0.5 -3.5 -1.3z"/>
  <path d="M1937 1449.3 c0.1 -1.7 4.8 -5.4 5.5 -4.3 0.4 0.6 1.4 0.9 2.2 0.6 1 -0.4 1.4 0 1.1 1.7 -0.2 1.8 -1 2.3 -4.5 2.5 -2.4 0.2 -4.3 0 -4.3 -0.5z"/>
 </g>
 <g fill="#61a9f1">
  <path d="M1522.5 1912.4 c-38.3 -4.1 -81.5 -15.3 -119.6 -30.9 -30.5 -12.5 -68.3 -34.2 -98.9 -56.8 -30 -22.2 -45.7 -36.5 -74.8 -68.2 -8.1 -8.8 -16.8 -18.2 -19.4 -20.9 -2.7 -2.7 -4.8 -5.2 -4.8 -5.6 0 -0.4 -3.7 -5.7 -8.1 -11.6 -31.4 -42 -62.5 -99.1 -86 -157.6 -8 -20 -26 -74.2 -34.4 -103.5 -14.5 -51 -27.7 -114.1 -38.2 -182.3 l-3.8 -24.5 -0.2 -621.8 -0.3 -621.7 6.7 0 c22.8 0.1 64.6 3.2 87.3 6.5 16.2 2.4 54.3 9.6 56.3 10.6 1 0.6 3.9 1.4 6.5 2 8.4 1.8 11.6 2.7 22.2 6.3 5.8 2 14.8 4.8 20 6.2 5.2 1.5 9.7 3 10 3.4 0.6 1 29.4 12 31.3 12 0.7 0 2.8 1.1 4.7 2.4 1.9 1.2 5.3 2.9 7.5 3.7 2.2 0.7 4.7 1.8 5.5 2.5 2 1.6 18.9 10 22 10.9 1.4 0.4 3.3 1.4 4.3 2.3 0.9 0.8 1.7 1.2 1.7 0.9 0 -0.3 1.1 0.4 2.4 1.6 1.3 1.2 7 4.5 12.7 7.2 5.6 2.8 11.3 5.9 12.5 7.1 1.3 1.1 4.3 2.9 6.6 4 2.4 1 5.2 2.7 6.3 3.7 2.3 2.1 16.6 11.6 21.5 14.3 1.9 1 3.9 2.4 4.5 3.1 0.5 0.6 8.4 6.8 17.5 13.8 24.3 18.6 39.2 31.7 60.5 53 28.5 28.4 45.9 49.5 66 80 43.5 66.1 70.1 134.1 80.4 205.5 3.9 26.7 4.6 37.9 4.6 73 -0.1 46.7 -3.2 73.8 -13 113.5 -7.4 30.1 -14.8 50.8 -27.5 77.1 -15.6 32.5 -27.9 51.6 -62.4 96.9 -39.8 52.3 -63.8 86.2 -84.3 119.5 -32.5 52.5 -53.3 99.6 -58.8 132.9 -5.2 31.2 3.4 68 27.2 115.6 28.9 57.9 70.5 110.4 126.8 160.2 13.5 12 42.8 34.6 47.4 36.6 1.4 0.7 3.2 1.8 4 2.5 2.3 2.2 15.2 10.7 21.6 14.2 3.3 1.8 9.2 5.2 13 7.6 6.2 3.8 11 6.1 19.5 9.8 1.4 0.5 3.4 1.8 4.5 2.7 6.8 5.6 65.3 26.9 74 26.9 1.9 0 3.7 0.5 4 1 0.3 0.6 1.9 1 3.4 1 1.5 0 4.1 0.6 5.7 1.4 1.6 0.8 7.4 2.2 12.9 3 5.5 0.9 12.1 2 14.8 2.6 2.6 0.5 11.6 1.7 20 2.6 28.3 3.1 91.8 0.4 96.7 -4.1 1.3 -1.1 2 -1.3 2.5 -0.5 0.4 0.7 1.1 0.8 1.8 0.2 0.7 -0.5 2.8 -1 4.8 -1 6.1 -0.2 23.8 -4.2 34.4 -7.8 5.5 -1.9 10.5 -3.5 11.2 -3.6 0.7 -0.1 1 -0.5 0.8 -0.9 -0.7 -1.1 2.3 -2.1 8.5 -3 3 -0.4 8.2 -1.7 11.5 -2.8 3.3 -1.2 6.6 -1.9 7.4 -1.6 1.1 0.5 1.3 6 0.8 35.8 -0.5 34 -1.8 53 -5.2 77.2 -10.7 75.7 -40.6 149.5 -83.9 207 -15.9 21.2 -41.3 47.8 -62.1 65.1 -56.3 46.9 -133.3 78 -204 82.4 -21.2 1.3 -55.7 1 -71 -0.6z"/>
 </g>
 <g fill="#24252a">
  <path d="M1922 1451.5 c1.4 -0.8 3.6 -1.4 5 -1.4 2.4 0.1 2.4 0.1 -0.5 1.4 -1.6 0.8 -3.9 1.4 -5 1.4 -1.8 0 -1.7 -0.1 0.5 -1.4z"/>
  <path d="M433.4 1427.5 c2.1 -1.6 3.2 -1.3 2.1 0.4 -0.3 0.6 -1.4 1.1 -2.3 1.1 -1.5 -0.1 -1.5 -0.2 0.2 -1.5z"/>
 </g>
</svg>