<?xml version="1.0" encoding="utf-8"?>
<!DOCTYPE svg PUBLIC "-//W3C//DTD SVG 1.0//EN" "http://www.w3.org/TR/2001/REC-SVG-20010904/DTD/svg10.dtd">
<svg version="1.0" xmlns="http://www.w3.org/2000/svg" width="2048px" height="2048px" viewBox="0 0 2048 2048" preserveAspectRatio="xMidYMid meet">
 <g fill="#000000">
 </g>
 <g fill="#497db6">
  <path d="M486 1914.9 c-47.3 -2 -93.4 -13 -135 -32.2 -14.3 -6.5 -17.5 -8.2 -27.5 -13.7 -37.1 -20.8 -67.3 -44.5 -94.8 -74.5 -28.7 -31.5 -49.2 -61.7 -68.2 -100.7 -25.7 -52.9 -39.9 -104.5 -45.5 -164.8 -0.6 -6.3 -1.4 -27.9 -1.7 -47.9 l-0.6 -36.4 3.4 0.8 c1.9 0.4 4.3 0.8 5.4 0.9 1.1 0 2.5 0.7 3.1 1.5 0.6 0.8 2 1.2 3 0.9 1.1 -0.3 2.5 0.1 3.2 0.8 1.4 1.6 19.5 7.2 24.2 7.6 1.9 0.2 4 0.8 4.7 1.4 1.4 1.3 13.1 3.9 13.9 3.1 0.4 -0.3 1.2 0 1.9 0.6 1.5 1.6 19.8 5.1 22.5 4.4 1 -0.3 2 -0.1 2.2 0.4 0.8 2.4 50.1 6.3 68.3 5.3 22.4 -1.1 42.5 -3.8 42.5 -5.5 0 -0.5 0.7 -0.9 1.5 -0.9 0.8 0 1.5 0.4 1.5 0.9 0 0.6 1.2 0.6 2.9 0.1 1.6 -0.4 3.2 -0.6 3.5 -0.3 0.3 0.3 0.8 -0.2 1.2 -1.1 0.6 -1.7 3.4 -2.3 3.4 -0.7 0 0.5 1.5 0.4 3.5 -0.2 1.9 -0.6 3.5 -1.3 3.5 -1.7 0 -0.3 2.4 -0.6 5.3 -0.6 9.1 -0.2 52.7 -13.4 52.7 -16 0 -0.9 0.9 -1.4 2.3 -1.3 4.1 0.4 5.7 -0.1 5.7 -1.7 0 -1.2 0.6 -1.5 2.5 -1 1.9 0.5 2.5 0.2 2.5 -1 0 -1.2 0.6 -1.5 2.1 -1.1 3.6 0.9 26.9 -9.3 26.9 -11.8 0 -1.5 3.4 -3 4.9 -2 2 1.2 34.4 -17.3 57.6 -32.8 50.7 -34 104.6 -88.4 140.7 -142.2 20.2 -30.2 36.3 -63.2 47.3 -96.5 6.7 -20.4 8.5 -30 9.2 -47.6 0.7 -18.2 -0.6 -29.8 -5.3 -48 -11.5 -44.9 -37 -87.4 -82.4 -137.4 -10.5 -11.6 -31.3 -35 -39.6 -44.5 -17.3 -19.8 -38 -48 -49.9 -67.5 -32.8 -54 -55.7 -124.2 -64 -196 -5 -44.1 -4.7 -97 1 -135 14 -94 55.5 -186.4 117.1 -260.5 13.6 -16.3 45.5 -48.3 64.2 -64.4 31.8 -27.1 70 -53.4 106.5 -73.1 7.2 -3.8 9.7 -5.6 9.2 -6.7 -0.4 -1.2 0 -1.4 2.1 -0.9 2.2 0.6 2.5 0.4 2 -1 -0.5 -1.3 -0.2 -1.5 1.7 -1 1.4 0.3 3.8 -0.2 5.9 -1.4 16.7 -8.9 56.2 -25 81.8 -33.3 10.2 -3.3 19 -6.6 19.7 -7.4 0.7 -0.9 1.9 -1.2 3.1 -0.9 1 0.4 7.7 -1 14.8 -2.9 28.3 -7.8 67.2 -14.4 100.4 -16.9 23 -1.8 56.9 -3 59.3 -2.1 2.4 1 2.2 3.5 -0.3 3.5 l-2 0 0.2 619 c0.3 549.8 0.1 619 -1.2 618.8 -1.1 -0.2 -1.6 -1.9 -1.8 -6.1 -0.3 -6.6 -2.2 -7.8 -2.3 -1.4 0 2.3 -0.2 5.6 -0.4 7.2 -0.2 1.7 -0.7 5.9 -1 9.5 -5.4 54.7 -23.9 148.5 -41 207.4 -35.6 122.6 -76.3 205.1 -137.5 278.6 -16.1 19.4 -52.9 55.5 -71.5 70.4 -53.1 42.4 -115.4 74.5 -173.5 89.5 -40 10.3 -75.9 13.9 -121 12z m284.6 -1131.4 c26.1 -4.6 48.6 -16.6 68.4 -36.4 25.1 -25.2 40.1 -60.3 40.1 -94.1 0 -49.1 -30.2 -96.5 -75.5 -118.5 -35.5 -17.3 -70.1 -17.8 -103 -1.4 -14.6 7.3 -22.9 13.3 -34.2 24.4 -11.6 11.6 -19.1 21.9 -26.2 36 -10.5 21 -14.6 38.4 -14.6 61 0 17.4 1.9 28 7.9 44 16.7 45.2 53.6 77.1 98 84.9 10.8 1.9 28.3 1.9 39.1 0.1z"/>
 </g>
 <g fill="#61a9f1">
  <path d="M1539 1914.4 c-18.4 -1.6 -29.4 -2.9 -42 -5 -16.3 -2.7 -56.1 -12.4 -57.2 -13.9 -0.4 -0.5 -0.8 -0.6 -0.8 -0.1 0 0.5 -0.6 0.4 -1.2 -0.1 -0.7 -0.6 -4.4 -2.1 -8.3 -3.3 -49.5 -16 -103.2 -46.7 -149.5 -85.4 -6.3 -5.2 -12.1 -9.6 -12.8 -9.6 -0.6 0 -1.1 -0.3 -1 -0.7 0.1 -0.5 -7.4 -8.4 -16.8 -17.8 -9.4 -9.3 -20.8 -21.3 -25.4 -26.5 -12.5 -14.2 -18 -20 -19.1 -20 -0.6 0 -0.7 -0.5 -0.3 -1.2 0.4 -0.6 0.1 -1.6 -0.7 -2.2 -0.8 -0.6 -1.8 -1.9 -2.4 -2.8 -0.5 -0.8 -5.1 -7.1 -10.1 -13.9 -31.3 -42.7 -63.1 -103.2 -85.7 -162.9 -12.1 -32 -29.1 -86.9 -38.1 -122.5 -12.9 -51.7 -24.9 -114.4 -31.1 -162 l-2.4 -19 0 -619.3 -0.1 -619.2 2.2 0 c41.5 -0.9 91.4 4.2 133.6 13.6 6.2 1.4 11.9 2.3 12.5 2.1 0.7 -0.2 1.8 0.2 2.5 1 1.2 1.2 2.5 1.5 8 1.7 0.9 0.1 2.3 0.7 3.1 1.4 0.8 0.8 2.5 1.2 3.7 0.9 1.3 -0.2 2.5 0 2.6 0.4 0.4 1.2 35.7 12.1 36.9 11.4 0.5 -0.4 0.9 -0.1 0.9 0.5 0 0.7 0.6 1 1.4 0.7 0.8 -0.3 1.7 0.1 2 0.9 0.3 0.8 1 1.4 1.6 1.4 0.6 0 7.3 2.5 15 5.6 7.7 3 14.4 5.3 15 4.9 0.5 -0.3 1 -0.1 1 0.5 0 0.6 0.5 0.8 1 0.5 0.5 -0.3 1 -0.2 1 0.3 0 1.4 10.8 6.5 12 5.7 0.5 -0.3 1 0 1.1 0.7 0 1.4 22.3 12.4 24.6 12.2 0.7 -0.1 1.3 0.2 1.3 0.8 0 0.5 0.5 0.6 1 0.3 0.6 -0.3 1 0.2 1 1.2 0 1.5 0.2 1.6 1 0.3 0.9 -1.3 1 -1.3 1 0.1 0 0.8 1.9 2.5 4.3 3.7 2.3 1.2 7.5 4 11.5 6.2 4 2.2 7.8 3.8 8.3 3.5 0.5 -0.4 0.9 0 0.9 0.7 0 1.7 10.6 8.1 12 7.3 0.6 -0.3 1 0 1.1 0.7 0 1.5 23.8 17.4 25.7 17.2 0.6 -0.1 1.2 0.3 1.3 1 0 0.6 7.8 6.8 17.2 13.8 39.2 28.9 81 70.1 108.8 107.1 34.4 45.9 61.6 96.9 79.5 149.1 36.3 106 33 234 -8.6 331.6 -10.5 24.7 -27.3 55 -40.4 72.8 -2.5 3.4 -4.6 6.7 -4.6 7.2 0 0.6 -0.4 1 -1 1 -0.5 0 -1 0.7 -1 1.5 0 0.9 -0.7 1.8 -1.5 2.1 -0.8 0.4 -1.5 1.2 -1.5 1.9 0 0.7 -0.4 1.5 -0.8 1.7 -0.5 0.2 -5.8 6.8 -11.8 14.8 -6.1 8 -17.3 22.8 -25 33 -78.6 103.7 -123.1 187.9 -127 240.6 -3.6 48.8 34.2 130.5 93.1 200.9 10.7 12.8 23.7 26.5 24.6 25.9 0.5 -0.3 0.9 0 0.9 0.7 0 3.1 37.9 38.4 58 54 14.5 11.3 27 20 27.9 19.4 0.5 -0.2 1.2 0.2 1.5 1 0.9 2.4 27.1 18.9 30.1 19 0.6 0 1.7 0.8 2.5 1.7 1.8 2.1 19 11.1 19.7 10.4 0.3 -0.3 1.2 0.2 2 1 0.8 0.8 1.8 1.2 2.2 1 0.4 -0.3 1.4 0.4 2.1 1.5 0.8 1 1.8 1.9 2.3 1.9 0.5 0 4.2 1.6 8.2 3.5 20.5 9.7 61.6 23.6 65.7 22.3 0.7 -0.3 1.9 0.2 2.7 1 0.8 0.8 2.6 1.2 4.2 1 1.6 -0.3 3 -0.1 3.1 0.4 0.5 1.4 11.5 3.9 17.7 4.1 3.1 0.1 5.9 0.5 6.2 0.9 0.8 1.2 18.4 3.6 35.3 4.9 23.9 1.8 61.2 0.3 84 -3.5 1.1 -0.1 2.2 -0.8 2.4 -1.4 0.5 -1.6 3.2 -1.5 3.2 0.1 0.1 0.7 0.6 0.5 1.4 -0.5 0.9 -1.3 2.2 -1.6 4.7 -1.2 5.7 0.9 43.1 -8.9 45.4 -12 1.4 -1.8 8.8 -4.1 9.2 -2.9 0.5 1.5 11.3 -2.7 11.3 -4.3 0 -0.8 0.7 -1.4 1.5 -1.4 0.8 0 1.5 0.4 1.5 1 0 0.6 1 0.5 2.5 -0.2 1.4 -0.6 2.8 -0.8 3.1 -0.5 1.3 1.3 1.6 36.1 0.5 58.2 -2.7 53.7 -9.9 95.3 -24.1 137.5 -18.7 56.2 -44.9 103.5 -79.8 144.5 -13.1 15.3 -36.2 37.8 -51.2 49.9 -53.1 42.6 -117.7 69.6 -187 78.2 -11.8 1.5 -57.7 2.7 -68 1.8z m-201 -1132.4 c10.6 -2.2 24.6 -6.8 32.1 -10.5 25.3 -12.8 47 -36.5 59.4 -64.6 22.3 -50.7 11.1 -108 -28.9 -148.5 -19.5 -19.6 -42.8 -31.7 -70.4 -36.4 -13.6 -2.4 -21.4 -2.5 -34.5 -0.5 -38 5.7 -72.9 31 -94.1 68 -11.7 20.6 -18.7 48.9 -17.2 69.4 2.5 32.6 16.5 63.3 40 87.3 18.2 18.7 39.5 30.4 65.2 35.7 5.4 1.1 11.7 2.3 13.9 2.5 7.6 0.8 24.7 -0.4 34.5 -2.4z"/>
 </g>
 <g fill="#24252a">
  <path d="M311 1467 c0 -0.5 0.7 -1 1.5 -1 0.8 0 1.5 0.5 1.5 1 0 0.6 -0.7 1 -1.5 1 -0.8 0 -1.5 -0.4 -1.5 -1z"/>
  <path d="M1865 1466 c0 -0.5 0.7 -1 1.5 -1 0.8 0 1.5 0.5 1.5 1 0 0.6 -0.7 1 -1.5 1 -0.8 0 -1.5 -0.4 -1.5 -1z"/>
  <path d="M322 1465 c0 -0.5 0.7 -1 1.5 -1 0.8 0 1.5 0.5 1.5 1 0 0.6 -0.7 1 -1.5 1 -0.8 0 -1.5 -0.4 -1.5 -1z"/>
  <path d="M1870 1465 c0 -0.5 0.6 -1 1.4 -1 0.8 0 1.8 0.5 2.1 1 0.3 0.6 -0.3 1 -1.4 1 -1.2 0 -2.1 -0.4 -2.1 -1z"/>
  <path d="M332 1463 c0 -0.5 0.6 -1 1.4 -1 0.8 0 1.8 0.5 2.1 1 0.3 0.6 -0.3 1 -1.4 1 -1.2 0 -2.1 -0.4 -2.1 -1z"/>
  <path d="M1919.6 1452.6 c0.6 -1.4 8.2 -4.1 9.2 -3.2 0.9 0.9 -0.3 1.6 -5.1 3.1 -3.7 1.1 -4.5 1.1 -4.1 0.1z"/>
  <path d="M390 1446.5 c0 -0.8 0.7 -1.5 1.5 -1.5 0.8 0 1.5 0.4 1.5 0.9 0 0.5 -0.7 1.1 -1.5 1.5 -0.9 0.3 -1.5 0 -1.5 -0.9z"/>
  <path d="M1940 1445.5 c0 -0.8 0.7 -1.5 1.5 -1.5 0.8 0 1.5 0.4 1.5 0.9 0 0.5 -0.7 1.1 -1.5 1.5 -0.9 0.3 -1.5 0 -1.5 -0.9z"/>
  <path d="M398 1443.5 c0 -0.8 0.7 -1.5 1.5 -1.5 0.8 0 1.5 0.4 1.5 0.9 0 0.5 -0.7 1.1 -1.5 1.5 -0.9 0.3 -1.5 0 -1.5 -0.9z"/>
  <path d="M403 1441 c0 -0.5 0.7 -1 1.5 -1 0.8 0 1.5 0.5 1.5 1 0 0.6 -0.7 1 -1.5 1 -0.8 0 -1.5 -0.4 -1.5 -1z"/>
  <path d="M432 1428.6 c0 -1.3 2 -2.6 4.1 -2.6 1.8 0 0.8 1.7 -1.6 2.8 -2 0.9 -2.5 0.9 -2.5 -0.2z"/>
  <path d="M728.5 786.4 c-51 -9 -92 -50.2 -103.8 -104.4 -2.9 -13 -3 -41.2 -0.3 -54.5 3.8 -19 12.5 -39.3 23.4 -55 7.1 -10.1 23.6 -26.6 32.8 -32.7 22.3 -14.8 44.4 -21.8 69 -21.8 56.1 0 107.7 37.8 125.8 92.1 9.2 27.2 9.3 58 0.5 84.3 -11.6 34.8 -34.6 62.6 -65.9 79.9 -8.3 4.6 -25 10.2 -36.4 12.2 -11 1.9 -34.1 1.9 -45.1 -0.1z"/>
  <path d="M1300.5 787.4 c-7.4 -0.8 -23.8 -4.5 -30.9 -7.1 -3.9 -1.4 -11.4 -4.7 -16.6 -7.4 -34 -17.5 -61 -53.9 -69.1 -93.2 -9.4 -46.2 6.2 -94 41.8 -127.7 44.2 -41.9 108 -46.6 160.3 -11.7 4.1 2.7 12 9.5 17.6 15.1 26.3 26.6 40.4 60.8 40.4 98 0 38.3 -14.1 72.7 -40.6 98.9 -7.7 7.7 -21.2 17.5 -30.3 22.2 -7.5 3.7 -21.5 8.3 -32.4 10.6 -9.9 2 -31.2 3.2 -40.2 2.3z"/>
  <path d="M861.7 29.4 c0.3 -0.8 1.1 -1.4 1.9 -1.4 2.1 0 1.7 1.7 -0.5 2.3 -1.4 0.3 -1.8 0.1 -1.4 -0.9z"/>
 </g>
</svg>